<mxfile host="app.diagrams.net" modified="2022-05-15T08:35:54.520Z" agent="5.0 (Windows NT 10.0; Win64; x64) AppleWebKit/537.36 (KHTML, like Gecko) Chrome/101.0.4951.67 Safari/537.36" etag="h0qkMnToTlTxhYeI-COu" version="18.0.1" type="github">
  <diagram id="FYv7JaiuW1tqM-m-85lL" name="Class Diagram">
    <mxGraphModel dx="1085" dy="603" grid="1" gridSize="10" guides="1" tooltips="1" connect="1" arrows="1" fold="1" page="1" pageScale="1" pageWidth="850" pageHeight="1100" math="0" shadow="0">
      <root>
        <mxCell id="0" />
        <mxCell id="1" parent="0" />
        <mxCell id="0aoVft2hGiI1sVCikAao-1" value="&amp;lt;&amp;lt;abstract&amp;gt;&amp;gt;&lt;br&gt;&lt;b&gt;BeforeAfterPublisher&lt;/b&gt;" style="html=1;" vertex="1" parent="1">
          <mxGeometry x="970" y="70" width="140" height="50" as="geometry" />
        </mxCell>
        <mxCell id="0aoVft2hGiI1sVCikAao-2" value="&amp;lt;&amp;lt;abstract&amp;gt;&amp;gt;&lt;br&gt;&lt;b&gt;Operator&lt;/b&gt;" style="html=1;" vertex="1" parent="1">
          <mxGeometry x="970" y="180" width="140" height="50" as="geometry" />
        </mxCell>
        <mxCell id="0aoVft2hGiI1sVCikAao-3" value="&amp;lt;&amp;lt;abstract&amp;gt;&amp;gt;&lt;br&gt;&lt;b&gt;PopulationEvaluator&lt;/b&gt;" style="html=1;" vertex="1" parent="1">
          <mxGeometry x="325" y="410" width="140" height="50" as="geometry" />
        </mxCell>
        <mxCell id="0aoVft2hGiI1sVCikAao-4" value="&lt;b&gt;SimplePopulationEvaluator&lt;/b&gt;" style="html=1;" vertex="1" parent="1">
          <mxGeometry x="310" y="500" width="170" height="50" as="geometry" />
        </mxCell>
        <mxCell id="0aoVft2hGiI1sVCikAao-5" value="&amp;lt;&amp;lt;abstract&amp;gt;&amp;gt;&lt;br&gt;&lt;b&gt;Algorithm&lt;/b&gt;" style="html=1;" vertex="1" parent="1">
          <mxGeometry x="970" y="310" width="140" height="50" as="geometry" />
        </mxCell>
        <mxCell id="0aoVft2hGiI1sVCikAao-6" value="&lt;b&gt;SimpleEvolution&lt;/b&gt;" style="html=1;" vertex="1" parent="1">
          <mxGeometry x="780" y="310" width="140" height="50" as="geometry" />
        </mxCell>
        <mxCell id="0aoVft2hGiI1sVCikAao-7" value="&amp;lt;&amp;lt;abstract&amp;gt;&amp;gt;&lt;br&gt;&lt;b&gt;Breeder&lt;/b&gt;" style="html=1;" vertex="1" parent="1">
          <mxGeometry x="1640" y="405" width="140" height="50" as="geometry" />
        </mxCell>
        <mxCell id="0aoVft2hGiI1sVCikAao-8" value="&lt;b&gt;SimpleBreeder&lt;/b&gt;" style="html=1;" vertex="1" parent="1">
          <mxGeometry x="1640" y="495" width="140" height="50" as="geometry" />
        </mxCell>
        <mxCell id="0aoVft2hGiI1sVCikAao-9" value="&amp;lt;&amp;lt;abstract&amp;gt;&amp;gt;&lt;br&gt;&lt;b&gt;IndividualEvaluator&lt;/b&gt;" style="html=1;" vertex="1" parent="1">
          <mxGeometry x="555" y="410" width="140" height="50" as="geometry" />
        </mxCell>
        <mxCell id="0aoVft2hGiI1sVCikAao-10" value="&lt;b&gt;SimpleIndividualEvaluator&lt;/b&gt;" style="html=1;" vertex="1" parent="1">
          <mxGeometry x="540" y="500" width="170" height="50" as="geometry" />
        </mxCell>
        <mxCell id="0aoVft2hGiI1sVCikAao-11" value="&lt;b&gt;ClassificationEvaluator&lt;/b&gt;" style="html=1;" vertex="1" parent="1">
          <mxGeometry x="450" y="600" width="170" height="50" as="geometry" />
        </mxCell>
        <mxCell id="0aoVft2hGiI1sVCikAao-12" value="&lt;b&gt;RegressionEvaluator&lt;/b&gt;" style="html=1;" vertex="1" parent="1">
          <mxGeometry x="647" y="600" width="170" height="50" as="geometry" />
        </mxCell>
        <mxCell id="0aoVft2hGiI1sVCikAao-13" value="&amp;lt;&amp;lt;abstract&amp;gt;&amp;gt;&lt;br&gt;&lt;b&gt;Creator&lt;/b&gt;" style="html=1;" vertex="1" parent="1">
          <mxGeometry x="1395" y="405" width="140" height="50" as="geometry" />
        </mxCell>
        <mxCell id="0aoVft2hGiI1sVCikAao-14" value="&amp;lt;&amp;lt;abstract&amp;gt;&amp;gt;&lt;br&gt;&lt;b&gt;GpTreeCreator&lt;/b&gt;" style="html=1;" vertex="1" parent="1">
          <mxGeometry x="1396" y="495" width="140" height="50" as="geometry" />
        </mxCell>
        <mxCell id="0aoVft2hGiI1sVCikAao-15" value="&lt;b&gt;GrowCreator&lt;/b&gt;" style="html=1;" vertex="1" parent="1">
          <mxGeometry x="1275" y="595" width="104" height="50" as="geometry" />
        </mxCell>
        <mxCell id="0aoVft2hGiI1sVCikAao-16" value="&lt;b&gt;FullCreator&lt;/b&gt;" style="html=1;" vertex="1" parent="1">
          <mxGeometry x="1413" y="595" width="104" height="50" as="geometry" />
        </mxCell>
        <mxCell id="0aoVft2hGiI1sVCikAao-17" value="&lt;b&gt;RampedHalfAndHalfCreator&lt;/b&gt;" style="html=1;" vertex="1" parent="1">
          <mxGeometry x="1551" y="595" width="184" height="50" as="geometry" />
        </mxCell>
        <mxCell id="0aoVft2hGiI1sVCikAao-18" value="&amp;lt;&amp;lt;abstract&amp;gt;&amp;gt;&lt;br&gt;&lt;b&gt;SelectionMethod&lt;/b&gt;" style="html=1;" vertex="1" parent="1">
          <mxGeometry x="1880" y="495" width="140" height="50" as="geometry" />
        </mxCell>
        <mxCell id="0aoVft2hGiI1sVCikAao-19" value="&lt;b&gt;TournamentSelection&lt;/b&gt;" style="html=1;" vertex="1" parent="1">
          <mxGeometry x="1800" y="605" width="140" height="50" as="geometry" />
        </mxCell>
        <mxCell id="0aoVft2hGiI1sVCikAao-20" value="&lt;b&gt;ElitismSelection&lt;/b&gt;" style="html=1;" vertex="1" parent="1">
          <mxGeometry x="1960" y="605" width="140" height="50" as="geometry" />
        </mxCell>
        <mxCell id="0aoVft2hGiI1sVCikAao-21" value="&amp;lt;&amp;lt;abstract&amp;gt;&amp;gt;&lt;br&gt;&lt;b&gt;GeneticOperator&lt;/b&gt;" style="html=1;" vertex="1" parent="1">
          <mxGeometry x="2319" y="495" width="190" height="50" as="geometry" />
        </mxCell>
        <mxCell id="0aoVft2hGiI1sVCikAao-22" value="&lt;b&gt;SubtreeMutation&lt;/b&gt;" style="html=1;" vertex="1" parent="1">
          <mxGeometry x="2279" y="605" width="127" height="50" as="geometry" />
        </mxCell>
        <mxCell id="0aoVft2hGiI1sVCikAao-23" value="&lt;b&gt;SubtreeCrossover&lt;/b&gt;" style="html=1;" vertex="1" parent="1">
          <mxGeometry x="2130" y="605" width="127" height="50" as="geometry" />
        </mxCell>
        <mxCell id="0aoVft2hGiI1sVCikAao-24" value="&lt;b&gt;ErcMutation&lt;/b&gt;" style="html=1;" vertex="1" parent="1">
          <mxGeometry x="2429" y="605" width="127" height="50" as="geometry" />
        </mxCell>
        <mxCell id="0aoVft2hGiI1sVCikAao-25" value="&lt;b&gt;IdentityTransformation&lt;/b&gt;" style="html=1;" vertex="1" parent="1">
          <mxGeometry x="2579" y="605" width="140" height="50" as="geometry" />
        </mxCell>
        <mxCell id="0aoVft2hGiI1sVCikAao-26" value="" style="endArrow=block;endSize=16;endFill=0;html=1;rounded=0;edgeStyle=orthogonalEdgeStyle;" edge="1" parent="1" source="0aoVft2hGiI1sVCikAao-3" target="0aoVft2hGiI1sVCikAao-2">
          <mxGeometry width="160" relative="1" as="geometry">
            <mxPoint x="612.7777777777778" y="320" as="sourcePoint" />
            <mxPoint x="561.2222222222222" y="280" as="targetPoint" />
            <Array as="points">
              <mxPoint x="395" y="290" />
              <mxPoint x="1040" y="290" />
            </Array>
          </mxGeometry>
        </mxCell>
        <mxCell id="0aoVft2hGiI1sVCikAao-27" value="" style="endArrow=block;endSize=16;endFill=0;html=1;rounded=0;" edge="1" parent="1" source="0aoVft2hGiI1sVCikAao-2" target="0aoVft2hGiI1sVCikAao-1">
          <mxGeometry width="160" relative="1" as="geometry">
            <mxPoint x="1163.7777777777778" y="310" as="sourcePoint" />
            <mxPoint x="1112.2222222222222" y="270" as="targetPoint" />
          </mxGeometry>
        </mxCell>
        <mxCell id="0aoVft2hGiI1sVCikAao-28" value="" style="endArrow=block;endSize=16;endFill=0;html=1;rounded=0;edgeStyle=orthogonalEdgeStyle;" edge="1" parent="1" source="0aoVft2hGiI1sVCikAao-5" target="0aoVft2hGiI1sVCikAao-2">
          <mxGeometry width="160" relative="1" as="geometry">
            <mxPoint x="255" y="320" as="sourcePoint" />
            <mxPoint x="509" y="260" as="targetPoint" />
            <Array as="points">
              <mxPoint x="1040" y="310" />
              <mxPoint x="1040" y="310" />
            </Array>
          </mxGeometry>
        </mxCell>
        <mxCell id="0aoVft2hGiI1sVCikAao-29" value="" style="endArrow=block;endSize=16;endFill=0;html=1;rounded=0;edgeStyle=orthogonalEdgeStyle;" edge="1" parent="1" source="0aoVft2hGiI1sVCikAao-7" target="0aoVft2hGiI1sVCikAao-2">
          <mxGeometry width="160" relative="1" as="geometry">
            <mxPoint x="265" y="330" as="sourcePoint" />
            <mxPoint x="519" y="270" as="targetPoint" />
            <Array as="points">
              <mxPoint x="1700" y="290" />
              <mxPoint x="1040" y="290" />
            </Array>
          </mxGeometry>
        </mxCell>
        <mxCell id="0aoVft2hGiI1sVCikAao-30" value="" style="endArrow=block;endSize=16;endFill=0;html=1;rounded=0;edgeStyle=orthogonalEdgeStyle;" edge="1" parent="1" source="0aoVft2hGiI1sVCikAao-9" target="0aoVft2hGiI1sVCikAao-2">
          <mxGeometry width="160" relative="1" as="geometry">
            <mxPoint x="275" y="340" as="sourcePoint" />
            <mxPoint x="529" y="280" as="targetPoint" />
            <Array as="points">
              <mxPoint x="625" y="290" />
              <mxPoint x="1040" y="290" />
            </Array>
          </mxGeometry>
        </mxCell>
        <mxCell id="0aoVft2hGiI1sVCikAao-31" value="" style="endArrow=block;endSize=16;endFill=0;html=1;rounded=0;" edge="1" parent="1" source="0aoVft2hGiI1sVCikAao-4" target="0aoVft2hGiI1sVCikAao-3">
          <mxGeometry width="160" relative="1" as="geometry">
            <mxPoint x="659" y="310" as="sourcePoint" />
            <mxPoint x="659" y="240" as="targetPoint" />
          </mxGeometry>
        </mxCell>
        <mxCell id="0aoVft2hGiI1sVCikAao-32" value="" style="endArrow=block;endSize=16;endFill=0;html=1;rounded=0;" edge="1" parent="1" source="0aoVft2hGiI1sVCikAao-6" target="0aoVft2hGiI1sVCikAao-5">
          <mxGeometry width="160" relative="1" as="geometry">
            <mxPoint x="1124" y="220" as="sourcePoint" />
            <mxPoint x="1124" y="150" as="targetPoint" />
          </mxGeometry>
        </mxCell>
        <mxCell id="0aoVft2hGiI1sVCikAao-33" value="" style="endArrow=block;endSize=16;endFill=0;html=1;rounded=0;" edge="1" parent="1" source="0aoVft2hGiI1sVCikAao-8" target="0aoVft2hGiI1sVCikAao-7">
          <mxGeometry width="160" relative="1" as="geometry">
            <mxPoint x="1624" y="325" as="sourcePoint" />
            <mxPoint x="1624" y="255" as="targetPoint" />
          </mxGeometry>
        </mxCell>
        <mxCell id="0aoVft2hGiI1sVCikAao-34" value="" style="endArrow=block;endSize=16;endFill=0;html=1;rounded=0;" edge="1" parent="1" source="0aoVft2hGiI1sVCikAao-10" target="0aoVft2hGiI1sVCikAao-9">
          <mxGeometry width="160" relative="1" as="geometry">
            <mxPoint x="359" y="340" as="sourcePoint" />
            <mxPoint x="359" y="270" as="targetPoint" />
          </mxGeometry>
        </mxCell>
        <mxCell id="0aoVft2hGiI1sVCikAao-35" value="" style="endArrow=block;endSize=16;endFill=0;html=1;rounded=0;edgeStyle=orthogonalEdgeStyle;" edge="1" parent="1" source="0aoVft2hGiI1sVCikAao-12" target="0aoVft2hGiI1sVCikAao-10">
          <mxGeometry width="160" relative="1" as="geometry">
            <mxPoint x="635" y="420" as="sourcePoint" />
            <mxPoint x="329" y="360" as="targetPoint" />
            <Array as="points">
              <mxPoint x="730" y="580" />
              <mxPoint x="630" y="580" />
            </Array>
          </mxGeometry>
        </mxCell>
        <mxCell id="0aoVft2hGiI1sVCikAao-36" value="" style="endArrow=block;endSize=16;endFill=0;html=1;rounded=0;edgeStyle=orthogonalEdgeStyle;" edge="1" parent="1" source="0aoVft2hGiI1sVCikAao-11" target="0aoVft2hGiI1sVCikAao-10">
          <mxGeometry width="160" relative="1" as="geometry">
            <mxPoint x="740" y="610" as="sourcePoint" />
            <mxPoint x="640" y="560" as="targetPoint" />
            <Array as="points">
              <mxPoint x="540" y="580" />
              <mxPoint x="630" y="580" />
            </Array>
          </mxGeometry>
        </mxCell>
        <mxCell id="0aoVft2hGiI1sVCikAao-37" value="" style="endArrow=block;endSize=16;endFill=0;html=1;rounded=0;" edge="1" parent="1" source="0aoVft2hGiI1sVCikAao-14" target="0aoVft2hGiI1sVCikAao-13">
          <mxGeometry width="160" relative="1" as="geometry">
            <mxPoint x="1040" y="505" as="sourcePoint" />
            <mxPoint x="1040" y="465" as="targetPoint" />
          </mxGeometry>
        </mxCell>
        <mxCell id="0aoVft2hGiI1sVCikAao-38" value="" style="endArrow=block;endSize=16;endFill=0;html=1;rounded=0;edgeStyle=orthogonalEdgeStyle;" edge="1" parent="1" source="0aoVft2hGiI1sVCikAao-17" target="0aoVft2hGiI1sVCikAao-14">
          <mxGeometry width="160" relative="1" as="geometry">
            <mxPoint x="1365" y="485" as="sourcePoint" />
            <mxPoint x="1265" y="435" as="targetPoint" />
            <Array as="points">
              <mxPoint x="1635" y="575" />
              <mxPoint x="1465" y="575" />
            </Array>
          </mxGeometry>
        </mxCell>
        <mxCell id="0aoVft2hGiI1sVCikAao-39" value="" style="endArrow=block;endSize=16;endFill=0;html=1;rounded=0;edgeStyle=orthogonalEdgeStyle;" edge="1" parent="1" source="0aoVft2hGiI1sVCikAao-15" target="0aoVft2hGiI1sVCikAao-14">
          <mxGeometry width="160" relative="1" as="geometry">
            <mxPoint x="1175" y="485" as="sourcePoint" />
            <mxPoint x="1265" y="435" as="targetPoint" />
            <Array as="points">
              <mxPoint x="1335" y="575" />
              <mxPoint x="1465" y="575" />
            </Array>
          </mxGeometry>
        </mxCell>
        <mxCell id="0aoVft2hGiI1sVCikAao-40" value="" style="endArrow=block;endSize=16;endFill=0;html=1;rounded=0;" edge="1" parent="1" source="0aoVft2hGiI1sVCikAao-16" target="0aoVft2hGiI1sVCikAao-14">
          <mxGeometry width="160" relative="1" as="geometry">
            <mxPoint x="1475.227272727273" y="505" as="sourcePoint" />
            <mxPoint x="1475.7727272727275" y="445" as="targetPoint" />
          </mxGeometry>
        </mxCell>
        <mxCell id="0aoVft2hGiI1sVCikAao-41" value="" style="endArrow=block;endSize=16;endFill=0;html=1;rounded=0;edgeStyle=orthogonalEdgeStyle;" edge="1" parent="1" source="0aoVft2hGiI1sVCikAao-20" target="0aoVft2hGiI1sVCikAao-18">
          <mxGeometry width="160" relative="1" as="geometry">
            <mxPoint x="1819.997619047619" y="485" as="sourcePoint" />
            <mxPoint x="1719.997619047619" y="435" as="targetPoint" />
            <Array as="points">
              <mxPoint x="2030" y="585" />
              <mxPoint x="1950" y="585" />
            </Array>
          </mxGeometry>
        </mxCell>
        <mxCell id="0aoVft2hGiI1sVCikAao-42" value="" style="endArrow=block;endSize=16;endFill=0;html=1;rounded=0;edgeStyle=orthogonalEdgeStyle;" edge="1" parent="1" source="0aoVft2hGiI1sVCikAao-19" target="0aoVft2hGiI1sVCikAao-18">
          <mxGeometry width="160" relative="1" as="geometry">
            <mxPoint x="1629.997619047619" y="485" as="sourcePoint" />
            <mxPoint x="1719.997619047619" y="435" as="targetPoint" />
            <Array as="points">
              <mxPoint x="1870" y="585" />
              <mxPoint x="1950" y="585" />
            </Array>
          </mxGeometry>
        </mxCell>
        <mxCell id="0aoVft2hGiI1sVCikAao-43" value="" style="endArrow=block;endSize=16;endFill=0;html=1;rounded=0;edgeStyle=orthogonalEdgeStyle;" edge="1" parent="1" source="0aoVft2hGiI1sVCikAao-23" target="0aoVft2hGiI1sVCikAao-21">
          <mxGeometry width="160" relative="1" as="geometry">
            <mxPoint x="2159" y="425" as="sourcePoint" />
            <mxPoint x="2413" y="365" as="targetPoint" />
            <Array as="points">
              <mxPoint x="2199" y="585" />
              <mxPoint x="2413" y="585" />
            </Array>
          </mxGeometry>
        </mxCell>
        <mxCell id="0aoVft2hGiI1sVCikAao-44" value="" style="endArrow=block;endSize=16;endFill=0;html=1;rounded=0;edgeStyle=orthogonalEdgeStyle;" edge="1" parent="1" source="0aoVft2hGiI1sVCikAao-22" target="0aoVft2hGiI1sVCikAao-21">
          <mxGeometry width="160" relative="1" as="geometry">
            <mxPoint x="2349" y="425" as="sourcePoint" />
            <mxPoint x="2414.0476190476193" y="365" as="targetPoint" />
            <Array as="points">
              <mxPoint x="2349" y="585" />
              <mxPoint x="2414" y="585" />
            </Array>
          </mxGeometry>
        </mxCell>
        <mxCell id="0aoVft2hGiI1sVCikAao-45" value="" style="endArrow=block;endSize=16;endFill=0;html=1;rounded=0;edgeStyle=orthogonalEdgeStyle;" edge="1" parent="1" source="0aoVft2hGiI1sVCikAao-24" target="0aoVft2hGiI1sVCikAao-21">
          <mxGeometry width="160" relative="1" as="geometry">
            <mxPoint x="2529" y="425" as="sourcePoint" />
            <mxPoint x="2413" y="365" as="targetPoint" />
            <Array as="points">
              <mxPoint x="2493" y="585" />
              <mxPoint x="2413" y="585" />
            </Array>
          </mxGeometry>
        </mxCell>
        <mxCell id="0aoVft2hGiI1sVCikAao-46" value="" style="endArrow=block;endSize=16;endFill=0;html=1;rounded=0;edgeStyle=orthogonalEdgeStyle;" edge="1" parent="1" source="0aoVft2hGiI1sVCikAao-25" target="0aoVft2hGiI1sVCikAao-21">
          <mxGeometry width="160" relative="1" as="geometry">
            <mxPoint x="2719" y="425" as="sourcePoint" />
            <mxPoint x="2413" y="365" as="targetPoint" />
            <Array as="points">
              <mxPoint x="2649" y="585" />
              <mxPoint x="2413" y="585" />
            </Array>
          </mxGeometry>
        </mxCell>
        <mxCell id="0aoVft2hGiI1sVCikAao-47" value="" style="endArrow=block;endSize=16;endFill=0;html=1;rounded=0;edgeStyle=orthogonalEdgeStyle;" edge="1" parent="1" source="0aoVft2hGiI1sVCikAao-13" target="0aoVft2hGiI1sVCikAao-2">
          <mxGeometry width="160" relative="1" as="geometry">
            <mxPoint x="815" y="320" as="sourcePoint" />
            <mxPoint x="508.9999999999998" y="260" as="targetPoint" />
            <Array as="points">
              <mxPoint x="1465" y="290" />
              <mxPoint x="1040" y="290" />
            </Array>
          </mxGeometry>
        </mxCell>
        <mxCell id="0aoVft2hGiI1sVCikAao-48" value="" style="endArrow=block;endSize=16;endFill=0;html=1;rounded=0;edgeStyle=orthogonalEdgeStyle;" edge="1" parent="1" source="0aoVft2hGiI1sVCikAao-18" target="0aoVft2hGiI1sVCikAao-2">
          <mxGeometry width="160" relative="1" as="geometry">
            <mxPoint x="825" y="330" as="sourcePoint" />
            <mxPoint x="518.9999999999998" y="270" as="targetPoint" />
            <Array as="points">
              <mxPoint x="1950" y="290" />
              <mxPoint x="1040" y="290" />
            </Array>
          </mxGeometry>
        </mxCell>
        <mxCell id="0aoVft2hGiI1sVCikAao-49" value="" style="endArrow=block;endSize=16;endFill=0;html=1;rounded=0;edgeStyle=orthogonalEdgeStyle;" edge="1" parent="1" source="0aoVft2hGiI1sVCikAao-21" target="0aoVft2hGiI1sVCikAao-2">
          <mxGeometry width="160" relative="1" as="geometry">
            <mxPoint x="1710" y="320" as="sourcePoint" />
            <mxPoint x="508.9999999999998" y="260" as="targetPoint" />
            <Array as="points">
              <mxPoint x="2420" y="290" />
              <mxPoint x="1040" y="290" />
            </Array>
          </mxGeometry>
        </mxCell>
        <mxCell id="0aoVft2hGiI1sVCikAao-50" value="&amp;lt;&amp;lt;abstract&amp;gt;&amp;gt;&lt;br&gt;&lt;b&gt;Fitness&lt;/b&gt;" style="html=1;" vertex="1" parent="1">
          <mxGeometry x="1220" y="816.73" width="140" height="50" as="geometry" />
        </mxCell>
        <mxCell id="0aoVft2hGiI1sVCikAao-51" value="&lt;b&gt;SimpleFitness&lt;/b&gt;" style="html=1;" vertex="1" parent="1">
          <mxGeometry x="1220" y="926.73" width="140" height="50" as="geometry" />
        </mxCell>
        <mxCell id="0aoVft2hGiI1sVCikAao-52" value="&lt;b&gt;GpFitness&lt;/b&gt;" style="html=1;" vertex="1" parent="1">
          <mxGeometry x="1220" y="1036.73" width="140" height="50" as="geometry" />
        </mxCell>
        <mxCell id="0aoVft2hGiI1sVCikAao-53" value="&amp;lt;&amp;lt;abstract&amp;gt;&amp;gt;&lt;br&gt;&lt;b&gt;Statistics&lt;/b&gt;" style="html=1;" vertex="1" parent="1">
          <mxGeometry x="535" y="710" width="140" height="50" as="geometry" />
        </mxCell>
        <mxCell id="0aoVft2hGiI1sVCikAao-54" value="&lt;b&gt;BestAverageWorst&lt;br&gt;SizeTreeStatistics&lt;/b&gt;" style="html=1;" vertex="1" parent="1">
          <mxGeometry x="620" y="820" width="140" height="50" as="geometry" />
        </mxCell>
        <mxCell id="0aoVft2hGiI1sVCikAao-55" value="&lt;b&gt;BestAverageWorst&lt;br&gt;Statistics&lt;/b&gt;" style="html=1;" vertex="1" parent="1">
          <mxGeometry x="460" y="820" width="140" height="50" as="geometry" />
        </mxCell>
        <mxCell id="0aoVft2hGiI1sVCikAao-56" value="&amp;lt;&amp;lt;abstract&amp;gt;&amp;gt;&lt;br&gt;&lt;b&gt;SklearnWrapper&lt;/b&gt;" style="html=1;" vertex="1" parent="1">
          <mxGeometry x="1340" y="70" width="140" height="50" as="geometry" />
        </mxCell>
        <mxCell id="0aoVft2hGiI1sVCikAao-57" value="&amp;lt;&amp;lt;mixin&amp;gt;&amp;gt;&lt;br&gt;&lt;b&gt;RegressorMixin&lt;/b&gt;" style="html=1;" vertex="1" parent="1">
          <mxGeometry x="1160" y="70" width="140" height="50" as="geometry" />
        </mxCell>
        <mxCell id="0aoVft2hGiI1sVCikAao-58" value="&amp;lt;&amp;lt;mixin&amp;gt;&amp;gt;&lt;br&gt;&lt;b&gt;ClassifierMixin&lt;/b&gt;" style="html=1;" vertex="1" parent="1">
          <mxGeometry x="1510" y="70" width="140" height="50" as="geometry" />
        </mxCell>
        <mxCell id="0aoVft2hGiI1sVCikAao-59" value="&lt;b&gt;SkRegressor&lt;/b&gt;" style="html=1;" vertex="1" parent="1">
          <mxGeometry x="1160" y="180" width="140" height="50" as="geometry" />
        </mxCell>
        <mxCell id="0aoVft2hGiI1sVCikAao-60" value="&lt;b&gt;SkClassifier&lt;/b&gt;" style="html=1;" vertex="1" parent="1">
          <mxGeometry x="1510" y="180" width="140" height="50" as="geometry" />
        </mxCell>
        <mxCell id="0aoVft2hGiI1sVCikAao-61" value="" style="endArrow=block;endSize=16;endFill=0;html=1;rounded=0;" edge="1" parent="1" source="0aoVft2hGiI1sVCikAao-59" target="0aoVft2hGiI1sVCikAao-56">
          <mxGeometry width="160" relative="1" as="geometry">
            <mxPoint x="1015" y="-120" as="sourcePoint" />
            <mxPoint x="1015" y="-160" as="targetPoint" />
          </mxGeometry>
        </mxCell>
        <mxCell id="0aoVft2hGiI1sVCikAao-62" value="" style="endArrow=block;endSize=16;endFill=0;html=1;rounded=0;" edge="1" parent="1" source="0aoVft2hGiI1sVCikAao-60" target="0aoVft2hGiI1sVCikAao-56">
          <mxGeometry width="160" relative="1" as="geometry">
            <mxPoint x="1025" y="-110" as="sourcePoint" />
            <mxPoint x="1025" y="-150" as="targetPoint" />
          </mxGeometry>
        </mxCell>
        <mxCell id="0aoVft2hGiI1sVCikAao-63" value="" style="endArrow=block;endSize=16;endFill=0;html=1;rounded=0;" edge="1" parent="1" source="0aoVft2hGiI1sVCikAao-51" target="0aoVft2hGiI1sVCikAao-50">
          <mxGeometry width="160" relative="1" as="geometry">
            <mxPoint x="1255" y="626.73" as="sourcePoint" />
            <mxPoint x="1255" y="586.73" as="targetPoint" />
          </mxGeometry>
        </mxCell>
        <mxCell id="0aoVft2hGiI1sVCikAao-64" value="" style="endArrow=block;endSize=16;endFill=0;html=1;rounded=0;" edge="1" parent="1" source="0aoVft2hGiI1sVCikAao-52" target="0aoVft2hGiI1sVCikAao-51">
          <mxGeometry width="160" relative="1" as="geometry">
            <mxPoint x="1265" y="656.73" as="sourcePoint" />
            <mxPoint x="1265" y="616.73" as="targetPoint" />
          </mxGeometry>
        </mxCell>
        <mxCell id="0aoVft2hGiI1sVCikAao-65" value="" style="endArrow=block;endSize=16;endFill=0;html=1;rounded=0;" edge="1" parent="1" source="0aoVft2hGiI1sVCikAao-59" target="0aoVft2hGiI1sVCikAao-57">
          <mxGeometry width="160" relative="1" as="geometry">
            <mxPoint x="1342.7272727272727" y="190" as="sourcePoint" />
            <mxPoint x="1397.2727272727273" y="130" as="targetPoint" />
          </mxGeometry>
        </mxCell>
        <mxCell id="0aoVft2hGiI1sVCikAao-66" value="" style="endArrow=block;endSize=16;endFill=0;html=1;rounded=0;" edge="1" parent="1" source="0aoVft2hGiI1sVCikAao-60" target="0aoVft2hGiI1sVCikAao-58">
          <mxGeometry width="160" relative="1" as="geometry">
            <mxPoint x="1352.7272727272727" y="200" as="sourcePoint" />
            <mxPoint x="1407.2727272727273" y="140" as="targetPoint" />
          </mxGeometry>
        </mxCell>
        <mxCell id="0aoVft2hGiI1sVCikAao-67" value="&amp;lt;&amp;lt;abstract&amp;gt;&amp;gt;&lt;br&gt;&lt;b&gt;TerminationChecker&lt;/b&gt;" style="html=1;" vertex="1" parent="1">
          <mxGeometry x="780" y="710" width="140" height="50" as="geometry" />
        </mxCell>
        <mxCell id="0aoVft2hGiI1sVCikAao-68" value="&lt;b&gt;ThresholdFromTarget&lt;br&gt;TerminationChecker&lt;br&gt;&lt;/b&gt;" style="html=1;" vertex="1" parent="1">
          <mxGeometry x="780" y="820" width="140" height="50" as="geometry" />
        </mxCell>
        <mxCell id="0aoVft2hGiI1sVCikAao-69" value="" style="endArrow=block;endSize=16;endFill=0;html=1;rounded=0;" edge="1" parent="1" source="0aoVft2hGiI1sVCikAao-68" target="0aoVft2hGiI1sVCikAao-67">
          <mxGeometry width="160" relative="1" as="geometry">
            <mxPoint x="815" y="520" as="sourcePoint" />
            <mxPoint x="815" y="480" as="targetPoint" />
          </mxGeometry>
        </mxCell>
        <mxCell id="0aoVft2hGiI1sVCikAao-70" value="&amp;lt;&amp;lt;abstract&amp;gt;&amp;gt;&lt;br&gt;&lt;b&gt;Individual&lt;/b&gt;" style="html=1;" vertex="1" parent="1">
          <mxGeometry x="970" y="816.73" width="140" height="50" as="geometry" />
        </mxCell>
        <mxCell id="0aoVft2hGiI1sVCikAao-71" value="&lt;b&gt;Tree&lt;br&gt;&lt;/b&gt;" style="html=1;" vertex="1" parent="1">
          <mxGeometry x="970" y="926.73" width="140" height="50" as="geometry" />
        </mxCell>
        <mxCell id="0aoVft2hGiI1sVCikAao-72" value="" style="endArrow=block;endSize=16;endFill=0;html=1;rounded=0;" edge="1" parent="1" source="0aoVft2hGiI1sVCikAao-71" target="0aoVft2hGiI1sVCikAao-70">
          <mxGeometry width="160" relative="1" as="geometry">
            <mxPoint x="1005" y="626.73" as="sourcePoint" />
            <mxPoint x="1005" y="586.73" as="targetPoint" />
          </mxGeometry>
        </mxCell>
        <mxCell id="0aoVft2hGiI1sVCikAao-73" value="&lt;b&gt;Population&lt;/b&gt;" style="html=1;" vertex="1" parent="1">
          <mxGeometry x="970" y="410" width="140" height="50" as="geometry" />
        </mxCell>
        <mxCell id="0aoVft2hGiI1sVCikAao-74" value="&lt;b&gt;Subpopulation&lt;br&gt;&lt;/b&gt;" style="html=1;" vertex="1" parent="1">
          <mxGeometry x="970" y="520" width="140" height="50" as="geometry" />
        </mxCell>
        <mxCell id="0aoVft2hGiI1sVCikAao-75" value="" style="endArrow=block;endSize=16;endFill=0;html=1;rounded=0;edgeStyle=orthogonalEdgeStyle;" edge="1" parent="1" source="0aoVft2hGiI1sVCikAao-54" target="0aoVft2hGiI1sVCikAao-53">
          <mxGeometry width="160" relative="1" as="geometry">
            <mxPoint x="709.998823529412" y="980" as="sourcePoint" />
            <mxPoint x="609.998823529412" y="930" as="targetPoint" />
            <Array as="points">
              <mxPoint x="700" y="800" />
              <mxPoint x="610" y="800" />
            </Array>
          </mxGeometry>
        </mxCell>
        <mxCell id="0aoVft2hGiI1sVCikAao-76" value="" style="endArrow=block;endSize=16;endFill=0;html=1;rounded=0;edgeStyle=orthogonalEdgeStyle;" edge="1" parent="1" source="0aoVft2hGiI1sVCikAao-55" target="0aoVft2hGiI1sVCikAao-53">
          <mxGeometry width="160" relative="1" as="geometry">
            <mxPoint x="519.998823529412" y="980" as="sourcePoint" />
            <mxPoint x="609.998823529412" y="930" as="targetPoint" />
            <Array as="points">
              <mxPoint x="540" y="800" />
              <mxPoint x="610" y="800" />
            </Array>
          </mxGeometry>
        </mxCell>
        <mxCell id="0aoVft2hGiI1sVCikAao-77" value="" style="endArrow=open;endFill=1;endSize=12;html=1;rounded=0;" edge="1" parent="1" source="0aoVft2hGiI1sVCikAao-5" target="0aoVft2hGiI1sVCikAao-73">
          <mxGeometry width="160" relative="1" as="geometry">
            <mxPoint x="860" y="550" as="sourcePoint" />
            <mxPoint x="1020" y="550" as="targetPoint" />
          </mxGeometry>
        </mxCell>
        <mxCell id="0aoVft2hGiI1sVCikAao-78" value="1" style="edgeLabel;html=1;align=center;verticalAlign=middle;resizable=0;points=[];" connectable="0" vertex="1" parent="0aoVft2hGiI1sVCikAao-77">
          <mxGeometry x="-0.3692" y="2" relative="1" as="geometry">
            <mxPoint x="18" y="-6" as="offset" />
          </mxGeometry>
        </mxCell>
        <mxCell id="0aoVft2hGiI1sVCikAao-79" value="1" style="edgeLabel;html=1;align=center;verticalAlign=middle;resizable=0;points=[];" connectable="0" vertex="1" parent="0aoVft2hGiI1sVCikAao-77">
          <mxGeometry x="0.3846" y="-1" relative="1" as="geometry">
            <mxPoint x="21" y="5" as="offset" />
          </mxGeometry>
        </mxCell>
        <mxCell id="0aoVft2hGiI1sVCikAao-80" value="" style="endArrow=diamondThin;endFill=1;endSize=24;html=1;rounded=0;" edge="1" parent="1" source="0aoVft2hGiI1sVCikAao-74" target="0aoVft2hGiI1sVCikAao-73">
          <mxGeometry width="160" relative="1" as="geometry">
            <mxPoint x="880" y="520" as="sourcePoint" />
            <mxPoint x="1130" y="460" as="targetPoint" />
          </mxGeometry>
        </mxCell>
        <mxCell id="0aoVft2hGiI1sVCikAao-81" value="" style="endArrow=diamondThin;endFill=1;endSize=24;html=1;rounded=0;" edge="1" parent="1" source="0aoVft2hGiI1sVCikAao-70" target="0aoVft2hGiI1sVCikAao-74">
          <mxGeometry width="160" relative="1" as="geometry">
            <mxPoint x="1050" y="610" as="sourcePoint" />
            <mxPoint x="1050" y="550" as="targetPoint" />
          </mxGeometry>
        </mxCell>
        <mxCell id="0aoVft2hGiI1sVCikAao-82" value="" style="endArrow=open;endFill=1;endSize=12;html=1;rounded=0;" edge="1" parent="1" source="0aoVft2hGiI1sVCikAao-70" target="0aoVft2hGiI1sVCikAao-50">
          <mxGeometry width="160" relative="1" as="geometry">
            <mxPoint x="1040" y="966.73" as="sourcePoint" />
            <mxPoint x="1200" y="966.73" as="targetPoint" />
          </mxGeometry>
        </mxCell>
        <mxCell id="0aoVft2hGiI1sVCikAao-83" value="1" style="edgeLabel;html=1;align=center;verticalAlign=middle;resizable=0;points=[];" connectable="0" vertex="1" parent="0aoVft2hGiI1sVCikAao-82">
          <mxGeometry x="0.5091" y="-2" relative="1" as="geometry">
            <mxPoint y="-17" as="offset" />
          </mxGeometry>
        </mxCell>
        <mxCell id="0aoVft2hGiI1sVCikAao-84" value="1" style="edgeLabel;html=1;align=center;verticalAlign=middle;resizable=0;points=[];" connectable="0" vertex="1" parent="0aoVft2hGiI1sVCikAao-82">
          <mxGeometry x="-0.2909" y="-1" relative="1" as="geometry">
            <mxPoint x="-19" y="-16" as="offset" />
          </mxGeometry>
        </mxCell>
        <mxCell id="0aoVft2hGiI1sVCikAao-85" value="" style="endArrow=open;endFill=1;endSize=12;html=1;rounded=0;edgeStyle=orthogonalEdgeStyle;" edge="1" parent="1" source="0aoVft2hGiI1sVCikAao-56" target="0aoVft2hGiI1sVCikAao-5">
          <mxGeometry width="160" relative="1" as="geometry">
            <mxPoint x="1220" y="270" as="sourcePoint" />
            <mxPoint x="1380" y="270" as="targetPoint" />
            <Array as="points">
              <mxPoint x="1410" y="270" />
              <mxPoint x="1080" y="270" />
            </Array>
          </mxGeometry>
        </mxCell>
        <mxCell id="0aoVft2hGiI1sVCikAao-86" value="wraps" style="edgeLabel;html=1;align=center;verticalAlign=middle;resizable=0;points=[];" connectable="0" vertex="1" parent="0aoVft2hGiI1sVCikAao-85">
          <mxGeometry x="0.2808" relative="1" as="geometry">
            <mxPoint x="14" y="-10" as="offset" />
          </mxGeometry>
        </mxCell>
        <mxCell id="0aoVft2hGiI1sVCikAao-87" value="1" style="edgeLabel;html=1;align=center;verticalAlign=middle;resizable=0;points=[];" connectable="0" vertex="1" parent="0aoVft2hGiI1sVCikAao-85">
          <mxGeometry x="0.7615" relative="1" as="geometry">
            <mxPoint x="-2" y="-10" as="offset" />
          </mxGeometry>
        </mxCell>
        <mxCell id="0aoVft2hGiI1sVCikAao-88" value="1" style="edgeLabel;html=1;align=center;verticalAlign=middle;resizable=0;points=[];" connectable="0" vertex="1" parent="0aoVft2hGiI1sVCikAao-85">
          <mxGeometry x="-0.9" y="4" relative="1" as="geometry">
            <mxPoint y="-6" as="offset" />
          </mxGeometry>
        </mxCell>
        <mxCell id="0aoVft2hGiI1sVCikAao-89" value="" style="endArrow=open;endFill=1;endSize=12;html=1;rounded=0;edgeStyle=orthogonalEdgeStyle;" edge="1" parent="1" source="0aoVft2hGiI1sVCikAao-74" target="0aoVft2hGiI1sVCikAao-13">
          <mxGeometry width="160" relative="1" as="geometry">
            <mxPoint x="900" y="480" as="sourcePoint" />
            <mxPoint x="1060" y="480" as="targetPoint" />
            <Array as="points">
              <mxPoint x="1080" y="480" />
              <mxPoint x="1190" y="480" />
              <mxPoint x="1190" y="430" />
            </Array>
          </mxGeometry>
        </mxCell>
        <mxCell id="0aoVft2hGiI1sVCikAao-90" value="n" style="edgeLabel;html=1;align=center;verticalAlign=middle;resizable=0;points=[];" connectable="0" vertex="1" parent="0aoVft2hGiI1sVCikAao-89">
          <mxGeometry x="0.7968" y="-3" relative="1" as="geometry">
            <mxPoint x="12" y="-18" as="offset" />
          </mxGeometry>
        </mxCell>
        <mxCell id="0aoVft2hGiI1sVCikAao-110" value="1" style="edgeLabel;html=1;align=center;verticalAlign=middle;resizable=0;points=[];" vertex="1" connectable="0" parent="0aoVft2hGiI1sVCikAao-89">
          <mxGeometry x="-0.78" y="3" relative="1" as="geometry">
            <mxPoint x="-7" y="23" as="offset" />
          </mxGeometry>
        </mxCell>
        <mxCell id="0aoVft2hGiI1sVCikAao-91" value="" style="endArrow=open;endFill=1;endSize=12;html=1;rounded=0;edgeStyle=orthogonalEdgeStyle;" edge="1" parent="1" source="0aoVft2hGiI1sVCikAao-74" target="0aoVft2hGiI1sVCikAao-9">
          <mxGeometry width="160" relative="1" as="geometry">
            <mxPoint x="700" y="450" as="sourcePoint" />
            <mxPoint x="860" y="450" as="targetPoint" />
            <Array as="points">
              <mxPoint x="800" y="545" />
              <mxPoint x="800" y="435" />
            </Array>
          </mxGeometry>
        </mxCell>
        <mxCell id="0aoVft2hGiI1sVCikAao-92" value="1" style="edgeLabel;html=1;align=center;verticalAlign=middle;resizable=0;points=[];" connectable="0" vertex="1" parent="0aoVft2hGiI1sVCikAao-91">
          <mxGeometry x="-0.7091" y="1" relative="1" as="geometry">
            <mxPoint x="36" y="-11" as="offset" />
          </mxGeometry>
        </mxCell>
        <mxCell id="0aoVft2hGiI1sVCikAao-93" value="1" style="edgeLabel;html=1;align=center;verticalAlign=middle;resizable=0;points=[];" connectable="0" vertex="1" parent="0aoVft2hGiI1sVCikAao-91">
          <mxGeometry x="0.5091" y="-2" relative="1" as="geometry">
            <mxPoint x="-60" y="-13" as="offset" />
          </mxGeometry>
        </mxCell>
        <mxCell id="0aoVft2hGiI1sVCikAao-94" value="" style="endArrow=open;endFill=1;endSize=12;html=1;rounded=0;edgeStyle=orthogonalEdgeStyle;" edge="1" parent="1" source="0aoVft2hGiI1sVCikAao-5" target="0aoVft2hGiI1sVCikAao-3">
          <mxGeometry width="160" relative="1" as="geometry">
            <mxPoint x="780" y="430" as="sourcePoint" />
            <mxPoint x="940" y="430" as="targetPoint" />
            <Array as="points">
              <mxPoint x="1040" y="380" />
              <mxPoint x="520" y="380" />
              <mxPoint x="520" y="435" />
            </Array>
          </mxGeometry>
        </mxCell>
        <mxCell id="0aoVft2hGiI1sVCikAao-95" value="1" style="edgeLabel;html=1;align=center;verticalAlign=middle;resizable=0;points=[];" connectable="0" vertex="1" parent="0aoVft2hGiI1sVCikAao-94">
          <mxGeometry x="0.7797" y="1" relative="1" as="geometry">
            <mxPoint x="-31" y="5" as="offset" />
          </mxGeometry>
        </mxCell>
        <mxCell id="0aoVft2hGiI1sVCikAao-96" value="" style="endArrow=open;endFill=1;endSize=12;html=1;rounded=0;edgeStyle=orthogonalEdgeStyle;" edge="1" parent="1" source="0aoVft2hGiI1sVCikAao-7" target="0aoVft2hGiI1sVCikAao-18">
          <mxGeometry width="160" relative="1" as="geometry">
            <mxPoint x="1860" y="440" as="sourcePoint" />
            <mxPoint x="2020" y="440" as="targetPoint" />
            <Array as="points">
              <mxPoint x="1850" y="430" />
              <mxPoint x="1850" y="520" />
            </Array>
          </mxGeometry>
        </mxCell>
        <mxCell id="0aoVft2hGiI1sVCikAao-97" value="n" style="edgeLabel;html=1;align=center;verticalAlign=middle;resizable=0;points=[];" connectable="0" vertex="1" parent="0aoVft2hGiI1sVCikAao-96">
          <mxGeometry x="0.1789" y="1" relative="1" as="geometry">
            <mxPoint x="9" y="28" as="offset" />
          </mxGeometry>
        </mxCell>
        <mxCell id="0aoVft2hGiI1sVCikAao-98" value="" style="endArrow=open;endFill=1;endSize=12;html=1;rounded=0;edgeStyle=orthogonalEdgeStyle;" edge="1" parent="1" source="0aoVft2hGiI1sVCikAao-7" target="0aoVft2hGiI1sVCikAao-21">
          <mxGeometry width="160" relative="1" as="geometry">
            <mxPoint x="1860" y="440" as="sourcePoint" />
            <mxPoint x="2020" y="440" as="targetPoint" />
            <Array as="points">
              <mxPoint x="2210" y="430" />
              <mxPoint x="2210" y="520" />
            </Array>
          </mxGeometry>
        </mxCell>
        <mxCell id="0aoVft2hGiI1sVCikAao-99" value="1" style="edgeLabel;html=1;align=center;verticalAlign=middle;resizable=0;points=[];" connectable="0" vertex="1" parent="0aoVft2hGiI1sVCikAao-98">
          <mxGeometry x="-0.9478" y="-2" relative="1" as="geometry">
            <mxPoint x="-8" y="-12" as="offset" />
          </mxGeometry>
        </mxCell>
        <mxCell id="0aoVft2hGiI1sVCikAao-100" value="n" style="edgeLabel;html=1;align=center;verticalAlign=middle;resizable=0;points=[];" connectable="0" vertex="1" parent="0aoVft2hGiI1sVCikAao-98">
          <mxGeometry x="0.8113" relative="1" as="geometry">
            <mxPoint x="36" y="-10" as="offset" />
          </mxGeometry>
        </mxCell>
        <mxCell id="0aoVft2hGiI1sVCikAao-101" value="applies" style="edgeLabel;html=1;align=center;verticalAlign=middle;resizable=0;points=[];" connectable="0" vertex="1" parent="0aoVft2hGiI1sVCikAao-98">
          <mxGeometry x="-0.881" y="1" relative="1" as="geometry">
            <mxPoint y="11" as="offset" />
          </mxGeometry>
        </mxCell>
        <mxCell id="0aoVft2hGiI1sVCikAao-102" value="" style="endArrow=open;endFill=1;endSize=12;html=1;rounded=0;edgeStyle=orthogonalEdgeStyle;" edge="1" parent="1" source="0aoVft2hGiI1sVCikAao-5" target="0aoVft2hGiI1sVCikAao-67">
          <mxGeometry width="160" relative="1" as="geometry">
            <mxPoint x="780" y="560" as="sourcePoint" />
            <mxPoint x="940" y="560" as="targetPoint" />
            <Array as="points">
              <mxPoint x="1040" y="380" />
              <mxPoint x="850" y="380" />
            </Array>
          </mxGeometry>
        </mxCell>
        <mxCell id="0aoVft2hGiI1sVCikAao-103" value="1" style="edgeLabel;html=1;align=center;verticalAlign=middle;resizable=0;points=[];" connectable="0" vertex="1" parent="0aoVft2hGiI1sVCikAao-102">
          <mxGeometry x="0.9037" relative="1" as="geometry">
            <mxPoint x="10" as="offset" />
          </mxGeometry>
        </mxCell>
        <mxCell id="0aoVft2hGiI1sVCikAao-104" value="" style="endArrow=open;endFill=1;endSize=12;html=1;rounded=0;edgeStyle=orthogonalEdgeStyle;" edge="1" parent="1" source="0aoVft2hGiI1sVCikAao-5" target="0aoVft2hGiI1sVCikAao-53">
          <mxGeometry width="160" relative="1" as="geometry">
            <mxPoint x="780" y="560" as="sourcePoint" />
            <mxPoint x="940" y="560" as="targetPoint" />
            <Array as="points">
              <mxPoint x="1040" y="380" />
              <mxPoint x="850" y="380" />
              <mxPoint x="850" y="670" />
              <mxPoint x="605" y="670" />
            </Array>
          </mxGeometry>
        </mxCell>
        <mxCell id="0aoVft2hGiI1sVCikAao-105" value="1" style="edgeLabel;html=1;align=center;verticalAlign=middle;resizable=0;points=[];" connectable="0" vertex="1" parent="0aoVft2hGiI1sVCikAao-104">
          <mxGeometry x="0.9185" y="-1" relative="1" as="geometry">
            <mxPoint x="-14" y="12" as="offset" />
          </mxGeometry>
        </mxCell>
        <mxCell id="0aoVft2hGiI1sVCikAao-106" value="" style="endArrow=open;endFill=1;endSize=12;html=1;rounded=0;edgeStyle=orthogonalEdgeStyle;" edge="1" parent="1" source="0aoVft2hGiI1sVCikAao-13" target="0aoVft2hGiI1sVCikAao-70">
          <mxGeometry width="160" relative="1" as="geometry">
            <mxPoint x="1060" y="630" as="sourcePoint" />
            <mxPoint x="1220" y="630" as="targetPoint" />
            <Array as="points">
              <mxPoint x="1430" y="480" />
              <mxPoint x="1220" y="480" />
              <mxPoint x="1220" y="620" />
              <mxPoint x="1080" y="620" />
            </Array>
          </mxGeometry>
        </mxCell>
        <mxCell id="0aoVft2hGiI1sVCikAao-107" value="creates" style="edgeLabel;html=1;align=center;verticalAlign=middle;resizable=0;points=[];" connectable="0" vertex="1" parent="0aoVft2hGiI1sVCikAao-106">
          <mxGeometry x="-0.5696" y="-3" relative="1" as="geometry">
            <mxPoint x="-27" y="23" as="offset" />
          </mxGeometry>
        </mxCell>
        <mxCell id="0aoVft2hGiI1sVCikAao-108" value="1" style="edgeLabel;html=1;align=center;verticalAlign=middle;resizable=0;points=[];" connectable="0" vertex="1" parent="0aoVft2hGiI1sVCikAao-106">
          <mxGeometry x="-0.8391" y="1" relative="1" as="geometry">
            <mxPoint x="14" y="-11" as="offset" />
          </mxGeometry>
        </mxCell>
        <mxCell id="0aoVft2hGiI1sVCikAao-109" value="n" style="edgeLabel;html=1;align=center;verticalAlign=middle;resizable=0;points=[];" connectable="0" vertex="1" parent="0aoVft2hGiI1sVCikAao-106">
          <mxGeometry x="0.8087" y="-1" relative="1" as="geometry">
            <mxPoint x="11" y="21" as="offset" />
          </mxGeometry>
        </mxCell>
      </root>
    </mxGraphModel>
  </diagram>
</mxfile>
